{"title":"Being.There.[1979].DvdRip.XviD-Kna","uid":6738365,"size":2080788480,"categoryP":"video","categoryS":"movies","magnet":"?xt=urn:btih:d8d6a992b02b641e8f8719fd7535e4c21e7226fb&amp;dn=Being.There.%5B1979%5D.DvdRip.XviD-Kna&amp;tr=udp%3A%2F%2Ftracker.openbittorrent.com%3A80&amp;tr=udp%3A%2F%2Fopen.demonii.com%3A1337&amp;tr=udp%3A%2F%2Ftracker.coppersurfer.tk%3A6969&amp;tr=udp%3A%2F%2Fexodus.desync.com%3A6969","seeders":1,"leechers":0,"uploader":"Jon.Pson","files":-1,"time":1318413445,"description":"Chance, a simple gardener, has never left the estate until his employer dies. His simple TV-informed utterances are mistaken for profundity.\n\n\n\nGeneral\nComplete name                    : Being.There.[1979].DvdRip.XviD-KnÃƒÂ£\\Being.There.[1979].DvdRip.XviD-KnÃƒÂ£.avi\nFormat                           : AVI\nFormat/Info                      : Audio Video Interleave\nFile size                        : 1.94 GiB\nDuration                         : 2h 7mn\nOverall bit rate                 : 2 179 Kbps\nWriting application              : VirtualDubMod 1.5.4.1 (build 2178/release)\nWriting library                  : VirtualDubMod build 2178/release\n\nVideo\nID                               : 0\nFormat                           : MPEG-4 Visual\nFormat profile                   : Advanced Simple@L5\nFormat settings, BVOP            : No\nFormat settings, QPel            : No\nFormat settings, GMC             : No warppoints\nFormat settings, Matrix          : Custom\nCodec ID                         : XVID\nCodec ID/Hint                    : XviD\nDuration                         : 2h 7mn\nBit rate                         : 1 985 Kbps\nWidth                            : 720 pixels\nHeight                           : 416 pixels\nDisplay aspect ratio             : 16:9\nFrame rate                       : 25.000 fps\nColor space                      : YUV\nChroma subsampling               : 4:2:0\nBit depth                        : 8 bits\nScan type                        : Progressive\nCompression mode                 : Lossy\nBits/(Pixel*Frame)               : 0.265\nStream size                      : 1.76 GiB (91%)\nWriting library                  : XviD 1.2.1 (UTC 2008-12-04)\n\nAudio\nID                               : 1\nFormat                           : AC-3\nFormat/Info                      : Audio Coding 3\nMode extension                   : CM (complete main)\nCodec ID                         : 2000\nDuration                         : 2h 4mn\nBit rate mode                    : Constant\nBit rate                         : 192 Kbps\nChannel(s)                       : 1 channel\nChannel positions                : Front: C\nSampling rate                    : 48.0 KHz\nBit depth                        : 16 bits\nCompression mode                 : Lossy\nStream size                      : 171 MiB (9%)\nAlignment                        : Split accross interleaves\nInterleave, duration             : 98 ms (2.45 video frames)\nInterleave, preload duration     : 96 ms\nLanguage                         : English\n\n","torrent":{"xt":"urn:btih:d8d6a992b02b641e8f8719fd7535e4c21e7226fb","amp;dn":"Being.There.%5B1979%5D.DvdRip.XviD-Kna","amp;tr":["udp%3A%2F%2Ftracker.openbittorrent.com%3A80","udp%3A%2F%2Fopen.demonii.com%3A1337","udp%3A%2F%2Ftracker.coppersurfer.tk%3A6969","udp%3A%2F%2Fexodus.desync.com%3A6969"],"infoHash":"d8d6a992b02b641e8f8719fd7535e4c21e7226fb","infoHashBuffer":{"type":"Buffer","data":[216,214,169,146,176,43,100,30,143,135,25,253,117,53,228,194,30,114,38,251]},"announce":[],"urlList":[]}}